<svg width="342" height="603" viewBox="0 0 342 603" fill="none" xmlns="http://www.w3.org/2000/svg">
<rect width="342" height="603" fill="#1E1E1E"/>
<rect x="2.5" y="2.5" width="337" height="597" fill="#F5F5DC" stroke="#6B8E23" stroke-width="5"/>
<path d="M0 0H135V115H0V0Z" fill="#D2B48C"/>
<path d="M0 0H135V115H0V0Z" fill="#D2B48C"/>
<path d="M0 0H135V115H0V0Z" fill="#D2B48C"/>
<path d="M0 0H135V115H0V0Z" fill="#D2B48C"/>
<path d="M0 0H135V115H0V0Z" fill="#D2B48C"/>
<path d="M0 0H135V115H0V0Z" fill="#D2B48C"/>
<path d="M0 0H135V115H0V0Z" fill="#D2B48C"/>
<path d="M0 0H135V115H0V0Z" fill="#D2B48C"/>
<path d="M0 0H135V115H0V0Z" stroke="#6B8E23" stroke-width="5"/>
<path d="M207 488H342V603H207V488Z" fill="#D2B48C"/>
<path d="M207 488H342V603H207V488Z" fill="#D2B48C"/>
<path d="M207 488H342V603H207V488Z" fill="#D2B48C"/>
<path d="M207 488H342V603H207V488Z" fill="#D2B48C"/>
<path d="M207 488H342V603H207V488Z" fill="#D2B48C"/>
<path d="M207 488H342V603H207V488Z" fill="#D2B48C"/>
<path d="M207 488H342V603H207V488Z" fill="#D2B48C"/>
<path d="M207 488H342V603H207V488Z" fill="#D2B48C"/>
<path d="M207 488H342V603H207V488Z" stroke="#6B8E23" stroke-width="5"/>
<path d="M207 366H342V481H207V366Z" fill="#D2B48C"/>
<path d="M207 366H342V481H207V366Z" fill="#D2B48C"/>
<path d="M207 366H342V481H207V366Z" fill="#D2B48C"/>
<path d="M207 366H342V481H207V366Z" fill="#D2B48C"/>
<path d="M207 366H342V481H207V366Z" fill="#D2B48C"/>
<path d="M207 366H342V481H207V366Z" fill="#D2B48C"/>
<path d="M207 366H342V481H207V366Z" fill="#D2B48C"/>
<path d="M207 366H342V481H207V366Z" fill="#D2B48C"/>
<path d="M207 366H342V481H207V366Z" stroke="#6B8E23" stroke-width="5"/>
<path d="M207 244H342V359H207V244Z" fill="#D2B48C"/>
<path d="M207 244H342V359H207V244Z" fill="#D2B48C"/>
<path d="M207 244H342V359H207V244Z" fill="#D2B48C"/>
<path d="M207 244H342V359H207V244Z" fill="#D2B48C"/>
<path d="M207 244H342V359H207V244Z" fill="#D2B48C"/>
<path d="M207 244H342V359H207V244Z" fill="#D2B48C"/>
<path d="M207 244H342V359H207V244Z" fill="#D2B48C"/>
<path d="M207 244H342V359H207V244Z" fill="#D2B48C"/>
<path d="M207 244H342V359H207V244Z" stroke="#6B8E23" stroke-width="5"/>
<path d="M207 122H342V237H207V122Z" fill="#D2B48C"/>
<path d="M207 122H342V237H207V122Z" fill="#D2B48C"/>
<path d="M207 122H342V237H207V122Z" fill="#D2B48C"/>
<path d="M207 122H342V237H207V122Z" fill="#D2B48C"/>
<path d="M207 122H342V237H207V122Z" fill="#D2B48C"/>
<path d="M207 122H342V237H207V122Z" fill="#D2B48C"/>
<path d="M207 122H342V237H207V122Z" fill="#D2B48C"/>
<path d="M207 122H342V237H207V122Z" fill="#D2B48C"/>
<path d="M207 122H342V237H207V122Z" stroke="#6B8E23" stroke-width="5"/>
<path d="M207 0H342V115H207V0Z" fill="#D2B48C"/>
<path d="M207 0H342V115H207V0Z" fill="#D2B48C"/>
<path d="M207 0H342V115H207V0Z" fill="#D2B48C"/>
<path d="M207 0H342V115H207V0Z" fill="#D2B48C"/>
<path d="M207 0H342V115H207V0Z" fill="#D2B48C"/>
<path d="M207 0H342V115H207V0Z" fill="#D2B48C"/>
<path d="M207 0H342V115H207V0Z" fill="#D2B48C"/>
<path d="M207 0H342V115H207V0Z" fill="#D2B48C"/>
<path d="M207 0H342V115H207V0Z" stroke="#6B8E23" stroke-width="5"/>
<path d="M0 244H135V359H0V244Z" fill="#D2B48C"/>
<path d="M0 244H135V359H0V244Z" fill="#D2B48C"/>
<path d="M0 244H135V359H0V244Z" fill="#D2B48C"/>
<path d="M0 244H135V359H0V244Z" fill="#D2B48C"/>
<path d="M0 244H135V359H0V244Z" fill="#D2B48C"/>
<path d="M0 244H135V359H0V244Z" fill="#D2B48C"/>
<path d="M0 244H135V359H0V244Z" fill="#D2B48C"/>
<path d="M0 244H135V359H0V244Z" fill="#D2B48C"/>
<path d="M0 244H135V359H0V244Z" stroke="#6B8E23" stroke-width="5"/>
<path d="M0 366H54V481H0V366Z" fill="#D2B48C"/>
<path d="M0 366H54V481H0V366Z" fill="#D2B48C"/>
<path d="M0 366H54V481H0V366Z" fill="#D2B48C"/>
<path d="M0 366H54V481H0V366Z" fill="#D2B48C"/>
<path d="M0 366H54V481H0V366Z" fill="#D2B48C"/>
<path d="M0 366H54V481H0V366Z" fill="#D2B48C"/>
<path d="M0 366H54V481H0V366Z" fill="#D2B48C"/>
<path d="M0 366H54V481H0V366Z" fill="#D2B48C"/>
<path d="M0 366H54V481H0V366Z" stroke="#6B8E23" stroke-width="5"/>
<path d="M54 366H135V481H54V366Z" fill="#D2B48C"/>
<path d="M54 366H135V481H54V366Z" fill="#D2B48C"/>
<path d="M54 366H135V481H54V366Z" fill="#D2B48C"/>
<path d="M54 366H135V481H54V366Z" fill="#D2B48C"/>
<path d="M54 366H135V481H54V366Z" fill="#D2B48C"/>
<path d="M54 366H135V481H54V366Z" fill="#D2B48C"/>
<path d="M54 366H135V481H54V366Z" fill="#D2B48C"/>
<path d="M54 366H135V481H54V366Z" fill="#D2B48C"/>
<path d="M54 366H135V481H54V366Z" stroke="#6B8E23" stroke-width="5"/>
<path d="M0 578H207V603H0V578Z" fill="#D2B48C"/>
<path d="M0 578H207V603H0V578Z" fill="#D2B48C"/>
<path d="M0 578H207V603H0V578Z" fill="#D2B48C"/>
<path d="M0 578H207V603H0V578Z" fill="#D2B48C"/>
<path d="M0 578H207V603H0V578Z" fill="#D2B48C"/>
<path d="M0 578H207V603H0V578Z" fill="#D2B48C"/>
<path d="M0 578H207V603H0V578Z" fill="#D2B48C"/>
<path d="M0 578H207V603H0V578Z" fill="#D2B48C"/>
<path d="M0 578H207V603H0V578Z" stroke="#6B8E23" stroke-width="5"/>
<path d="M0 122H135V237H0V122Z" fill="#D2B48C"/>
<path d="M0 122H135V237H0V122Z" fill="#D2B48C"/>
<path d="M0 122H135V237H0V122Z" fill="#D2B48C"/>
<path d="M0 122H135V237H0V122Z" fill="#D2B48C"/>
<path d="M0 122H135V237H0V122Z" fill="#D2B48C"/>
<path d="M0 122H135V237H0V122Z" fill="#D2B48C"/>
<path d="M0 122H135V237H0V122Z" fill="#D2B48C"/>
<path d="M0 122H135V237H0V122Z" fill="#D2B48C"/>
<path d="M0 122H135V237H0V122Z" stroke="#6B8E23" stroke-width="5"/>
</svg>
